<svg xmlns="http://www.w3.org/2000/svg" width="512" height="320" viewBox="0 0 512 320">
  <defs>
    <linearGradient id="g" x1="0" y1="0" x2="0" y2="1">
      <stop offset="0" stop-color="#0b1220"/>
      <stop offset="1" stop-color="#14223a"/>
    </linearGradient>
  </defs>
  <rect width="512" height="320" rx="24" fill="url(#g)"/>
  <!-- banner -->
  <rect x="64" y="44" width="384" height="64" rx="16" fill="#1f3b7a" opacity="0.9"/>
  <path d="M96 108 L128 44 L160 108 Z" fill="#2f62d3" opacity="0.6"/>
  <path d="M160 108 L192 44 L224 108 Z" fill="#2f62d3" opacity="0.6"/>
  <path d="M224 108 L256 44 L288 108 Z" fill="#2f62d3" opacity="0.6"/>
  <path d="M288 108 L320 44 L352 108 Z" fill="#2f62d3" opacity="0.6"/>
  <path d="M352 108 L384 44 L416 108 Z" fill="#2f62d3" opacity="0.6"/>
  <text x="256" y="86" text-anchor="middle" font-family="system-ui, -apple-system, Segoe UI, Roboto, sans-serif" font-size="26" font-weight="800" fill="#eaf2ff">
    POP-UP VENDOR
  </text>
  <!-- table -->
  <rect x="96" y="150" width="320" height="30" rx="10" fill="#0e172a" opacity="0.9"/>
  <rect x="112" y="180" width="288" height="78" rx="14" fill="#0e172a" opacity="0.92"/>
  <!-- legs -->
  <rect x="140" y="250" width="18" height="40" rx="8" fill="#22304a"/>
  <rect x="354" y="250" width="18" height="40" rx="8" fill="#22304a"/>
  <!-- items -->
  <rect x="132" y="130" width="52" height="38" rx="10" fill="#f59e0b" opacity="0.9"/>
  <rect x="198" y="132" width="48" height="36" rx="10" fill="#22c55e" opacity="0.85"/>
  <rect x="258" y="132" width="58" height="36" rx="10" fill="#a855f7" opacity="0.8"/>
  <rect x="328" y="130" width="56" height="38" rx="10" fill="#ef4444" opacity="0.8"/>
  <!-- subtle glow -->
  <circle cx="256" cy="214" r="120" fill="#2563eb" opacity="0.08"/>
</svg>
